HIERARCHY
ROOT hip
{
  OFFSET -152.135 80.4527 -38.0106
  CHANNELS 6 Xposition Yposition Zposition Zrotation Xrotation Yrotation
  JOINT abdomen
  {
    OFFSET 0 20.6881 -0.73152
    CHANNELS 3 Zrotation Xrotation Yrotation
    JOINT chest
    {
      OFFSET 0 11.7043 -0.48768
      CHANNELS 3 Zrotation Xrotation Yrotation
      JOINT neck
      {
        OFFSET 0 22.1894 -2.19456
        CHANNELS 3 Zrotation Xrotation Yrotation
        JOINT head
        {
          OFFSET -0.24384 7.07133 1.2192
          CHANNELS 3 Zrotation Xrotation Yrotation
          JOINT leftEye
          {
            OFFSET 4.14528 8.04674 8.04672
            CHANNELS 3 Zrotation Xrotation Yrotation
            End Site
            {
              OFFSET 1 0 0
            }
          }
          JOINT rightEye
          {
            OFFSET -3.6576 8.04674 8.04672
            CHANNELS 3 Zrotation Xrotation Yrotation
            End Site
            {
              OFFSET 1 0 0
            }
          }
        }
      }
      JOINT rCollar
      {
        OFFSET -2.68224 19.2634 -4.8768
        CHANNELS 3 Zrotation Xrotation Yrotation
        JOINT rShldr
        {
          OFFSET -8.77824 -1.95073 1.46304
          CHANNELS 3 Zrotation Xrotation Yrotation
          JOINT rForeArm
          {
            OFFSET -28.1742 -1.7115 0.48768
            CHANNELS 3 Zrotation Xrotation Yrotation
            JOINT rHand
            {
              OFFSET -22.5879 0.773209 7.07136
              CHANNELS 3 Zrotation Xrotation Yrotation
              JOINT rThumb1
              {
                OFFSET -1.2192 -0.487915 3.41376
                CHANNELS 3 Zrotation Xrotation Yrotation
                JOINT rThumb2
                {
                  OFFSET -3.37035 -0.52449 3.41376
                  CHANNELS 3 Zrotation Xrotation Yrotation
                  End Site
                  {
                    OFFSET -1.78271 -1.18214 1.43049
                  }
                }
              }
              JOINT rIndex1
              {
                OFFSET -7.75947 0.938293 5.60832
                CHANNELS 3 Zrotation Xrotation Yrotation
                JOINT rIndex2
                {
                  OFFSET -2.54057 -0.884171 1.56538
                  CHANNELS 3 Zrotation Xrotation Yrotation
                  End Site
                  {
                    OFFSET -1.62519 -0.234802 1.16502
                  }
                }
              }
              JOINT rMid1
              {
                OFFSET -8.24714 1.18213 3.41376
                CHANNELS 3 Zrotation Xrotation Yrotation
                JOINT rMid2
                {
                  OFFSET -3.10165 -0.590103 1.0647
                  CHANNELS 3 Zrotation Xrotation Yrotation
                  End Site
                  {
                    OFFSET -2.48547 -0.328903 0.83742
                  }
                }
              }
              JOINT rRing1
              {
                OFFSET -8.82822 0.546677 1.51678
                CHANNELS 3 Zrotation Xrotation Yrotation
                JOINT rRing2
                {
                  OFFSET -2.60934 -0.819778 -0.0198488
                  CHANNELS 3 Zrotation Xrotation Yrotation
                  End Site
                  {
                    OFFSET -2.33842 -0.294052 0.168128
                  }
                }
              }
              JOINT rPinky1
              {
                OFFSET -8.27202 -0.0477905 -0.4584
                CHANNELS 3 Zrotation Xrotation Yrotation
                JOINT rPinky2
                {
                  OFFSET -1.82734 -0.647385 -0.700984
                  CHANNELS 3 Zrotation Xrotation Yrotation
                  End Site
                  {
                    OFFSET -1.69225 -0.51767 -0.607171
                  }
                }
              }
            }
          }
        }
      }
      JOINT lCollar
      {
        OFFSET 2.68224 19.2634 -4.8768
        CHANNELS 3 Zrotation Xrotation Yrotation
        JOINT lShldr
        {
          OFFSET 8.77824 -1.95073 1.46304
          CHANNELS 3 Zrotation Xrotation Yrotation
          JOINT lForeArm
          {
            OFFSET 28.1742 -1.7115 0.48768
            CHANNELS 3 Zrotation Xrotation Yrotation
            JOINT lHand
            {
              OFFSET 22.5879 0.773209 7.07136
              CHANNELS 3 Zrotation Xrotation Yrotation
              JOINT lThumb1
              {
                OFFSET 1.2192 -0.487915 3.41376
                CHANNELS 3 Zrotation Xrotation Yrotation
                JOINT lThumb2
                {
                  OFFSET 3.37035 -0.52449 3.41376
                  CHANNELS 3 Zrotation Xrotation Yrotation
                  End Site
                  {
                    OFFSET 1.78271 -1.18214 1.43049
                  }
                }
              }
              JOINT lIndex1
              {
                OFFSET 7.75947 0.938293 5.60832
                CHANNELS 3 Zrotation Xrotation Yrotation
                JOINT lIndex2
                {
                  OFFSET 2.54057 -0.884171 1.56538
                  CHANNELS 3 Zrotation Xrotation Yrotation
                  End Site
                  {
                    OFFSET 1.62519 -0.234802 1.16502
                  }
                }
              }
              JOINT lMid1
              {
                OFFSET 8.24714 1.18213 3.41376
                CHANNELS 3 Zrotation Xrotation Yrotation
                JOINT lMid2
                {
                  OFFSET 3.10165 -0.590103 1.0647
                  CHANNELS 3 Zrotation Xrotation Yrotation
                  End Site
                  {
                    OFFSET 2.48547 -0.328903 0.83742
                  }
                }
              }
              JOINT lRing1
              {
                OFFSET 8.82822 0.546677 1.51678
                CHANNELS 3 Zrotation Xrotation Yrotation
                JOINT lRing2
                {
                  OFFSET 2.60934 -0.819778 -0.0198488
                  CHANNELS 3 Zrotation Xrotation Yrotation
                  End Site
                  {
                    OFFSET 2.33842 -0.294052 0.168128
                  }
                }
              }
              JOINT lPinky1
              {
                OFFSET 8.27202 -0.0477905 -0.4584
                CHANNELS 3 Zrotation Xrotation Yrotation
                JOINT lPinky2
                {
                  OFFSET 1.82734 -0.647385 -0.700984
                  CHANNELS 3 Zrotation Xrotation Yrotation
                  End Site
                  {
                    OFFSET 1.69225 -0.51767 -0.607171
                  }
                }
              }
            }
          }
        }
      }
    }
  }
  JOINT rButtock
  {
    OFFSET -8.77824 4.35084 1.2192
    CHANNELS 3 Zrotation Xrotation Yrotation
    JOINT rThigh
    {
      OFFSET 0 -1.70687 -2.19456
      CHANNELS 3 Zrotation Xrotation Yrotation
      JOINT rShin
      {
        OFFSET 0 -36.8199 0.73152
        CHANNELS 3 Zrotation Xrotation Yrotation
        JOINT rFoot
        {
          OFFSET 0.73152 -45.1104 -5.12064
          CHANNELS 3 Zrotation Xrotation Yrotation
          End Site
          {
            OFFSET -1.1221 -3.69964 12.103
          }
        }
      }
    }
  }
  JOINT lButtock
  {
    OFFSET 8.77824 4.35084 1.2192
    CHANNELS 3 Zrotation Xrotation Yrotation
    JOINT lThigh
    {
      OFFSET 0 -1.70687 -2.19456
      CHANNELS 3 Zrotation Xrotation Yrotation
      JOINT lShin
      {
        OFFSET 0 -36.8199 0.73152
        CHANNELS 3 Zrotation Xrotation Yrotation
        JOINT lFoot
        {
          OFFSET -0.73152 -45.1104 -5.12064
          CHANNELS 3 Zrotation Xrotation Yrotation
          End Site
          {
            OFFSET 1.1221 -3.69964 12.103
          }
        }
      }
    }
  }
}
MOTION
Frames:	8
Frame Time:	0.00833333
-123.336 81.2443 -10.6912 -6.13061 0.780043 142.452 -3.53542 -0.626637 -5.25668 0.153378 1.26964 -1.58739 0.81626 14.1307 -2.51126 -2.54922 -51.5344 -8.43293 -0 0 0 -0 0 0 5.96012e-014 6.48785e-014 -9.07983e-013 82.3494 27.8507 0.431637 -16.0492 -8.7329 29.7767 -0.00424042 1.84751 0.259744 5.10865e-009 2.86247e-009 -2.30989e-009 8.83138e-009 4.99635e-009 -4.01668e-009 5.10865e-009 2.86247e-009 -2.30991e-009 7.73091 5.47488 0.417314 5.10865e-009 2.86247e-009 -2.3099e-009 2.90554 0.965183 0.102902 5.10866e-009 2.86247e-009 -2.3099e-009 10.2786 0.731801 0.0259123 5.10865e-009 2.86247e-009 -2.3099e-009 2.22167 -0.733487 -0.20892 5.95181e-014 6.49024e-014 -9.08151e-013 -73.3428 5.72962 -9.70204 10.3307 -4.3448 -18.4232 0.0321294 5.11026 -0.720128 7.59766e-009 1.21462e-008 -2.51612e-009 1.31219e-008 2.10316e-008 -4.40184e-009 7.59765e-009 1.21462e-008 -2.5161e-009 -7.73091 5.47488 -0.417314 7.59766e-009 1.21462e-008 -2.51612e-009 -2.90554 0.965183 -0.102902 7.59765e-009 1.21462e-008 -2.51612e-009 -10.2786 0.731801 -0.0259123 7.59767e-009 1.21462e-008 -2.51613e-009 -2.22167 -0.733487 0.20892 -2.03217e-016 0 -3.88251e-019 -3.10022 0.44908 14.2943 -0.155906 25.1351 0.270201 2.35783 -9.90014 10.0512 2.03217e-016 0 3.88251e-019 12.9121 -29.3454 7.16452 0.384832 42.736 -0.67431 -1.56876 -14.3269 -4.96994 
-123.805 81.291 -10.8093 -5.61665 0.561056 142.861 -4.12707 -0.482029 -5.01047 0.296215 1.19045 -1.52045 0.799051 14.2716 -2.50639 -2.83987 -51.7715 -8.59043 -0 0 0 -0 0 0 3.71974e-014 -2.64969e-015 -7.04674e-013 82.3048 27.8674 0.366776 -15.9822 -8.67073 29.6352 -0.00413302 1.82539 0.256631 4.30957e-009 2.75823e-009 -1.90195e-009 7.45119e-009 4.8103e-009 -3.30903e-009 4.30956e-009 2.75824e-009 -1.90197e-009 7.73091 5.47488 0.417314 4.30956e-009 2.75823e-009 -1.90196e-009 2.90554 0.965183 0.102902 4.30957e-009 2.75823e-009 -1.90196e-009 10.2786 0.731801 0.0259123 4.30956e-009 2.75823e-009 -1.90196e-009 2.22167 -0.733487 -0.20892 3.71869e-014 -2.63385e-015 -7.04731e-013 -73.3226 5.91615 -9.78141 10.3349 -4.34743 -18.4312 0.0314174 5.05343 -0.712079 6.51884e-009 1.03361e-008 -2.66109e-009 1.1257e-008 1.78969e-008 -4.64388e-009 6.51883e-009 1.03361e-008 -2.66107e-009 -7.73091 5.47488 -0.417314 6.51884e-009 1.03361e-008 -2.66109e-009 -2.90554 0.965183 -0.102902 6.51883e-009 1.03361e-008 -2.66109e-009 -10.2786 0.731801 -0.0259123 6.51884e-009 1.03361e-008 -2.6611e-009 -2.22167 -0.733487 0.20892 -2.03217e-016 0 -3.88251e-019 -3.84694 0.111227 14.1248 -0.163737 26.1048 0.289018 2.44556 -9.58512 10.5678 2.03217e-016 0 3.88251e-019 12.0201 -28.7858 7.04231 0.380454 42.5719 -0.674091 -1.4732 -14.5642 -4.63481 
-124.401 81.2578 -10.5933 -5.22327 0.385853 143.219 -4.60831 -0.340231 -4.83688 0.390459 1.14315 -1.47535 0.80685 14.341 -2.48932 -3.02674 -51.9757 -8.68043 -0 0 0 -0 0 0 2.10249e-014 -5.12909e-014 -4.89805e-013 82.3024 27.8526 0.378329 -15.9142 -8.60782 29.4918 -0.00424679 1.86041 0.261556 3.33757e-009 2.47743e-009 -1.45408e-009 5.77172e-009 4.31678e-009 -2.53101e-009 3.33757e-009 2.47743e-009 -1.4541e-009 7.73091 5.47488 0.417314 3.33757e-009 2.47743e-009 -1.45409e-009 2.90554 0.965183 0.102902 3.33758e-009 2.47743e-009 -1.45409e-009 10.2786 0.731801 0.0259123 3.33756e-009 2.47743e-009 -1.45409e-009 2.22167 -0.733487 -0.20892 2.10691e-014 -5.12818e-014 -4.89805e-013 -73.244 6.02797 -9.90421 10.3292 -4.34391 -18.4204 0.0309808 5.01786 -0.707041 5.14198e-009 8.10156e-009 -2.52785e-009 8.87808e-009 1.40276e-008 -4.40355e-009 5.14198e-009 8.10156e-009 -2.52784e-009 -7.73091 5.47488 -0.417314 5.14198e-009 8.10156e-009 -2.52785e-009 -2.90554 0.965183 -0.102902 5.14197e-009 8.10156e-009 -2.52785e-009 -10.2786 0.731801 -0.0259123 5.14199e-009 8.10156e-009 -2.52786e-009 -2.22167 -0.733487 0.20892 -2.03217e-016 0 -3.88251e-019 -4.39882 -0.313026 13.9496 -0.173138 27.1338 0.308721 2.47797 -9.22156 10.9195 2.03217e-016 0 3.88251e-019 11.316 -28.3449 6.96816 0.377281 42.453 -0.672529 -1.40082 -14.7628 -4.3785 
-124.641 81.235 -10.5235 -4.98767 0.265158 143.505 -4.9618 -0.19691 -4.77193 0.421958 1.14717 -1.46301 0.850173 14.3142 -2.45467 -3.04748 -52.1564 -8.66833 -0 0 0 -0 0 0 7.54085e-015 -6.61149e-014 -2.24594e-013 82.3608 27.7943 0.512261 -15.8427 -8.54199 29.3412 -0.00474805 1.97914 0.27826 1.96516e-009 1.76798e-009 -8.40248e-010 3.39961e-009 3.07732e-009 -1.46331e-009 1.96516e-009 1.76798e-009 -8.40258e-010 7.73091 5.47488 0.417314 1.96515e-009 1.76798e-009 -8.40255e-010 2.90554 0.965183 0.102902 1.96516e-009 1.76798e-009 -8.40256e-010 10.2786 0.731801 0.0259123 1.96515e-009 1.76798e-009 -8.4025e-010 2.22167 -0.733487 -0.20892 7.61811e-015 -6.61104e-014 -2.24622e-013 -73.0723 6.01832 -10.1052 10.3057 -4.3293 -18.376 0.0307726 4.99978 -0.704482 3.07431e-009 4.76648e-009 -1.85153e-009 5.30726e-009 8.25326e-009 -3.22054e-009 3.07431e-009 4.76649e-009 -1.85151e-009 -7.73091 5.47488 -0.417314 3.07431e-009 4.76648e-009 -1.85152e-009 -2.90554 0.965183 -0.102902 3.0743e-009 4.76649e-009 -1.85153e-009 -10.2786 0.731801 -0.0259123 3.07431e-009 4.76649e-009 -1.85153e-009 -2.22167 -0.733487 0.20892 -2.03217e-016 0 -3.88251e-019 -4.69756 -0.85477 13.7749 -0.184746 28.2573 0.329858 2.44237 -8.80364 11.0483 2.03217e-016 0 3.88251e-019 10.8517 -28.0703 6.94782 0.375618 42.3887 -0.668869 -1.36417 -14.8909 -4.2383 
-124.808 81.2143 -10.4553 -4.83851 0.176978 143.74 -5.24831 -0.0406232 -4.77292 0.415767 1.17894 -1.47089 0.913411 14.2386 -2.41243 -2.97443 -52.3393 -8.606 -0 0 0 -0 0 0 -1.40962e-015 -6.68283e-014 1.05055e-013 82.4562 27.7061 0.72281 -15.7697 -8.47507 29.1876 -0.00558956 2.14914 0.302182 1.4049e-010 7.98477e-010 -8.60007e-011 2.45406e-010 1.38373e-009 -1.50359e-010 1.40489e-010 7.98479e-010 -8.60075e-011 7.73091 5.47488 0.417314 1.40487e-010 7.98479e-010 -8.60042e-011 2.90554 0.965183 0.102902 1.40493e-010 7.98482e-010 -8.60045e-011 10.2786 0.731801 0.0259123 1.40482e-010 7.98485e-010 -8.5997e-011 2.22167 -0.733487 -0.20892 -1.30823e-015 -6.68283e-014 1.04949e-013 -72.8456 5.93451 -10.3576 10.2683 -4.30615 -18.3056 0.0307328 4.99513 -0.703824 3.02496e-010 3.75399e-010 -7.72985e-010 5.21074e-010 6.50799e-010 -1.33804e-009 3.02495e-010 3.75405e-010 -7.72975e-010 -7.73091 5.47488 -0.417314 3.02497e-010 3.75402e-010 -7.72985e-010 -2.90554 0.965183 -0.102902 3.02486e-010 3.75403e-010 -7.72986e-010 -10.2786 0.731801 -0.0259123 3.025e-010 3.75403e-010 -7.72991e-010 -2.22167 -0.733487 0.20892 -2.03217e-016 0 -3.88251e-019 -4.84819 -1.4876 13.5885 -0.198648 29.4769 0.352907 2.36681 -8.35708 11.034 2.03217e-016 0 3.88251e-019 10.5195 -27.8994 6.94982 0.374783 42.353 -0.663567 -1.34931 -14.9652 -4.16908 
-125.119 81.155 -10.2575 -4.75001 0.117163 143.958 -5.45926 0.1101 -4.79082 0.384621 1.21246 -1.48384 0.984855 14.1344 -2.36726 -2.88916 -52.4842 -8.5287 -0 0 0 -0 0 0 7.60775e-016 -7.22442e-014 4.01309e-013 82.5659 27.6042 0.940417 -15.699 -8.41056 29.0394 -0.00664611 2.33495 0.328337 -1.58567e-009 9.66952e-012 5.44224e-010 -2.73868e-009 3.755e-012 9.47665e-010 -1.58567e-009 9.66957e-012 5.4422e-010 7.73091 5.47488 0.417314 -1.58567e-009 9.67081e-012 5.44225e-010 2.90554 0.965183 0.102902 -1.58566e-009 9.67568e-012 5.44225e-010 10.2786 0.731801 0.0259123 -1.58567e-009 9.67977e-012 5.44234e-010 2.22167 -0.733487 -0.20892 8.76557e-016 -7.22488e-014 4.01116e-013 -72.6145 5.84642 -10.6029 10.232 -4.28365 -18.2374 0.0309828 5.01538 -0.706692 -2.2797e-009 -3.58384e-009 2.17444e-010 -3.93774e-009 -6.20401e-009 3.9064e-010 -2.27971e-009 -3.58383e-009 2.17451e-010 -7.73091 5.47488 -0.417314 -2.2797e-009 -3.58383e-009 2.17441e-010 -2.90554 0.965183 -0.102902 -2.27971e-009 -3.58383e-009 2.17442e-010 -10.2786 0.731801 -0.0259123 -2.2797e-009 -3.58383e-009 2.17436e-010 -2.22167 -0.733487 0.20892 -2.03217e-016 0 -3.88251e-019 -4.90707 -2.16229 13.3872 -0.213916 30.7118 0.376705 2.26877 -7.87527 10.9497 2.03217e-016 0 3.88251e-019 10.2784 -27.7729 6.98131 0.374606 42.3444 -0.657974 -1.3428 -15.045 -4.1218 
-125.566 81.1599 -10.377 -4.6961 0.0809813 144.194 -5.58654 0.236774 -4.77656 0.341212 1.22167 -1.48671 1.05271 14.0216 -2.32377 -2.87422 -52.551 -8.47242 -0 0 0 -0 0 0 2.06394e-014 -1.01176e-013 5.66338e-013 82.6661 27.5054 1.09587 -15.6346 -8.35202 28.9049 -0.00767829 2.5011 0.351733 -2.66255e-009 -1.57701e-010 7.85995e-010 -4.60046e-009 -2.94885e-010 1.3706e-009 -2.66255e-009 -1.57702e-010 7.85991e-010 7.73091 5.47488 0.417314 -2.66255e-009 -1.57699e-010 7.85998e-010 2.90554 0.965183 0.102902 -2.66255e-009 -1.57696e-010 7.85999e-010 10.2786 0.731801 0.0259123 -2.66256e-009 -1.57689e-010 7.86007e-010 2.22167 -0.733487 -0.20892 2.0759e-014 -1.01185e-013 5.66089e-013 -72.4281 5.82376 -10.7829 10.2117 -4.271 -18.1991 0.0316556 5.07202 -0.714713 -3.77854e-009 -5.62336e-009 6.29435e-010 -6.52647e-009 -9.73538e-009 1.11222e-009 -3.77854e-009 -5.62335e-009 6.29441e-010 -7.73091 5.47488 -0.417314 -3.77854e-009 -5.62335e-009 6.29432e-010 -2.90554 0.965183 -0.102902 -3.77855e-009 -5.62335e-009 6.29433e-010 -10.2786 0.731801 -0.0259123 -3.77853e-009 -5.62335e-009 6.29425e-010 -2.22167 -0.733487 0.20892 -2.03217e-016 0 -3.88251e-019 -4.93007 -2.82948 13.1678 -0.229353 31.8812 0.39992 2.16363 -7.35201 10.8682 2.03217e-016 0 3.88251e-019 10.0876 -27.6313 7.04954 0.374913 42.3614 -0.65344 -1.33058 -15.1896 -4.04728 
-125.858 81.0632 -10.3093 -4.72134 0.0925704 144.456 -5.55157 0.326294 -4.72312 0.269412 1.19326 -1.47662 1.12162 13.8835 -2.28151 -2.98211 -52.4912 -8.45443 -0 0 0 -0 0 0 7.76462e-014 -1.81735e-013 5.33209e-013 82.7565 27.4138 1.17727 -15.5708 -8.29431 28.7715 -0.0086072 2.64799 0.372419 -2.85262e-009 7.95278e-010 3.83104e-010 -4.92938e-009 1.35356e-009 6.74007e-010 -2.85262e-009 7.9528e-010 3.831e-010 7.73091 5.47488 0.417314 -2.85262e-009 7.95284e-010 3.83109e-010 2.90554 0.965183 0.102902 -2.85262e-009 7.95282e-010 3.83108e-010 10.2786 0.731801 0.0259123 -2.85263e-009 7.95293e-010 3.83115e-010 2.22167 -0.733487 -0.20892 7.77542e-014 -1.8175e-013 5.32954e-013 -72.298 5.93749 -10.8566 10.2329 -4.28387 -18.2393 0.0327607 5.15544 -0.726537 -3.70517e-009 -4.70396e-009 6.37821e-011 -6.40189e-009 -8.14448e-009 1.33247e-010 -3.70518e-009 -4.70396e-009 6.37883e-011 -7.73091 5.47488 -0.417314 -3.70517e-009 -4.70396e-009 6.37796e-011 -2.90554 0.965183 -0.102902 -3.70518e-009 -4.70396e-009 6.37799e-011 -10.2786 0.731801 -0.0259123 -3.70517e-009 -4.70396e-009 6.3772e-011 -2.22167 -0.733487 0.20892 -2.03217e-016 0 -3.88251e-019 -4.87241 -3.47885 12.9336 -0.244056 32.925 0.421159 2.05246 -6.74001 10.8343 2.03217e-016 0 3.88251e-019 10.0109 -27.4756 7.18389 0.376112 42.4245 -0.650617 -1.31505 -15.4389 -3.94616 
